<?xml version="1.0" encoding="UTF-8" standalone="no"?>
<svg
   xmlns:dc="http://purl.org/dc/elements/1.1/"
   xmlns:cc="http://creativecommons.org/ns#"
   xmlns:rdf="http://www.w3.org/1999/02/22-rdf-syntax-ns#"
   xmlns:svg="http://www.w3.org/2000/svg"
   xmlns="http://www.w3.org/2000/svg"
   height="163.76308"
   width="254.56894"
   xml:space="preserve"
   viewBox="0 0 254.56894 163.76308"
   y="0px"
   x="0px"
   id="Layer_1"
   version="1.1"><metadata
   id="metadata29"><rdf:RDF><cc:Work
       rdf:about=""><dc:format>image/svg+xml</dc:format><dc:type
         rdf:resource="http://purl.org/dc/dcmitype/StillImage" /></cc:Work></rdf:RDF></metadata><defs
   id="defs27" />
<style
   id="style2"
   type="text/css">
	.st0{fill-rule:evenodd;clip-rule:evenodd;fill:#F1B5D6;stroke:#FFFFFF;stroke-miterlimit:10;}
</style>
<g
   transform="translate(-592.4649,-368.32302)"
   id="g22">
	<path
   style="clip-rule:evenodd;fill:#f1b5d6;fill-rule:evenodd;stroke:#ffffff;stroke-miterlimit:10"
   id="path4"
   d="m 675.4,368.9 c 0.4,0.2 0.5,0.6 0.6,0.9 3.5,6.9 7,13.9 10.6,20.8 5.3,10.4 10.6,20.9 15.9,31.3 4.3,8.5 8.6,17 12.9,25.5 0.1,0.2 0.2,0.4 0.3,0.6 0.5,1.1 0.5,1.1 -0.5,1.6 -2.9,1.5 -5.8,3.1 -8.7,4.6 -11.8,6.3 -23.5,12.5 -35.3,18.8 -4,2.1 -8,4.2 -12,6.3 -0.3,0.2 -0.7,0.6 -1.1,0.3 -0.4,-0.3 -0.1,-0.8 0,-1.2 1.5,-9.6 3,-19.2 4.5,-28.9 1.4,-8.7 2.7,-17.5 4.1,-26.2 1.4,-9.2 2.9,-18.4 4.3,-27.5 1.4,-8.8 2.7,-17.6 4.1,-26.4 0.1,-0.1 0,-0.3 0.3,-0.5 z"
   class="st0" />
	<path
   style="clip-rule:evenodd;fill:#f1b5d6;fill-rule:evenodd;stroke:#ffffff;stroke-miterlimit:10"
   id="path6"
   d="m 846.1,523.2 c -1.8,-0.5 -3.6,-0.9 -5.4,-1.4 -9.9,-2.5 -19.7,-5.1 -29.6,-7.6 -17.3,-4.5 -34.6,-8.9 -51.9,-13.4 -10.4,-2.7 -20.8,-5.4 -31.2,-8.1 -0.4,-0.1 -1,0 -1.1,-0.5 -0.1,-0.5 0.4,-0.6 0.8,-0.9 6.7,-5.2 13.3,-10.4 20,-15.7 0.6,-0.5 1.2,-0.7 2,-0.7 2.7,0 5.4,-0.2 8.1,-0.3 5.3,-0.2 10.5,-0.3 15.8,-0.5 4,-0.2 8,-0.3 12.1,-0.4 2.4,-0.1 4.9,-0.1 7.3,-0.3 0.7,0 1.1,0.1 1.6,0.6 2.7,2.6 5.5,5.2 8.2,7.7 5.9,5.6 11.9,11.2 17.8,16.8 3.9,3.7 7.8,7.3 11.7,11 4.3,4 8.6,8.1 12.9,12.1 0.4,0.4 0.8,0.8 1.2,1.1 -0.2,0.4 -0.2,0.5 -0.3,0.5 z"
   class="st0" />
	<path
   style="clip-rule:evenodd;fill:#f1b5d6;fill-rule:evenodd;stroke:#ffffff;stroke-miterlimit:10"
   id="path8"
   d="m 815.9,402.6 c 0,0.6 -0.2,1.1 -0.4,1.6 -3,9.2 -5.9,18.4 -8.9,27.6 -4.1,12.8 -8.2,25.6 -12.3,38.5 -0.1,0.2 -0.1,0.4 -0.2,0.6 -0.6,1.7 -0.5,1.7 -2.4,1.8 -2.5,0.1 -5,0.1 -7.6,0.2 -5.4,0.2 -10.9,0.3 -16.3,0.5 -3.7,0.2 -7.4,0.3 -11.2,0.4 -2.4,0.1 -4.7,0.2 -7.1,0.3 -0.9,0 -1.4,-0.3 -1.8,-1 -2.3,-3.5 -4.7,-7 -7.1,-10.5 -0.6,-0.9 -0.6,-0.9 0.3,-1.6 2.7,-2.2 5.5,-4.3 8.3,-6.5 12.3,-9.6 24.6,-19.2 36.9,-28.8 9.7,-7.6 19.4,-15.1 29.1,-22.7 0.2,-0.2 0.4,-0.3 0.7,-0.4 z"
   class="st0" />
	<path
   style="clip-rule:evenodd;fill:#f1b5d6;fill-rule:evenodd;stroke:#ffffff;stroke-miterlimit:10"
   id="path10"
   d="m 593.1,475.5 c 0.2,-0.5 0.6,-0.7 0.8,-1 3.8,-3.9 7.5,-7.9 11.3,-11.8 3.9,-4.1 7.8,-8.2 11.7,-12.4 1.1,-1.2 1.1,-1.2 2.3,-0.2 6.7,5.6 13.4,11.1 20.2,16.7 5.4,4.5 10.8,9 16.3,13.5 0.3,0.3 0.7,0.6 0.9,1 0.1,0.1 0.2,0.3 0.3,0.4 3.5,2.2 6.4,5.1 9.6,7.7 5.5,4.5 10.9,9 16.4,13.5 0.6,0.5 1.3,0.9 1.6,1.7 0,0.1 0.1,0.1 0.1,0.2 1.7,0.6 2.8,2 4.1,3.1 5.5,4.5 11,9.1 16.5,13.7 0.2,0.1 0.4,0.3 0.5,0.5 0.2,0.2 0.1,0.4 -0.1,0.5 -0.3,0.1 -0.6,0.2 -0.9,0.3 -9.5,2.8 -19,5.7 -28.5,8.5 -1.1,0.3 -1.1,0.3 -1.8,-0.6 -8.9,-11.3 -17.8,-22.7 -26.7,-34 -6,-7.7 -12,-15.3 -18,-23 -0.7,-0.8 -1.4,-1.2 -2.4,-1 -3.6,0.4 -7.2,0.7 -10.8,1.1 -2.8,0.3 -5.6,0.5 -8.4,0.8 -2.8,0.3 -5.6,0.5 -8.4,0.8 -1.8,0.2 -3.7,0.4 -5.5,0.5 -0.3,-0.4 -0.7,-0.3 -1.1,-0.5 z"
   class="st0" />
	<path
   style="clip-rule:evenodd;fill:#f1b5d6;fill-rule:evenodd;stroke:#ffffff;stroke-miterlimit:10"
   id="path12"
   d="m 841.5,523.1 c -1.7,0.2 -3.4,-0.1 -5,-0.2 -2.4,-0.1 -4.9,-0.4 -7.3,-0.6 -2.6,-0.2 -5.2,-0.4 -7.8,-0.6 -2.3,-0.2 -4.6,-0.3 -7,-0.5 -2.5,-0.2 -4.9,-0.4 -7.4,-0.6 -2.3,-0.2 -4.6,-0.3 -7,-0.5 -2.6,-0.2 -5.2,-0.4 -7.8,-0.6 -2.2,-0.2 -4.4,-0.3 -6.6,-0.5 -2.6,-0.2 -5.2,-0.4 -7.9,-0.6 -2.3,-0.2 -4.6,-0.3 -6.9,-0.5 -2.5,-0.2 -5,-0.4 -7.5,-0.6 -3.7,-0.3 -7.3,-0.5 -11,0.1 -2.6,0.4 -5.2,0.5 -7.7,0.8 -2.6,0.3 -5.2,0.5 -7.7,0.8 -2.5,0.3 -5.1,0.5 -7.6,0.8 -2.7,0.3 -5.3,0.6 -8,0.8 -2.5,0.3 -5,0.5 -7.5,0.8 -1.3,0.1 -2.5,0.3 -3.8,0.4 -0.5,0 -1,0.1 -1.5,0 -0.1,-0.5 0.3,-0.9 0.5,-1.2 3.7,-6.2 7.5,-12.4 11.3,-18.6 1.5,-2.5 3,-5 4.5,-7.4 0.6,-1.1 0.7,-1.1 1.9,-0.8 11.9,3.1 23.7,6.1 35.6,9.2 15.4,4 30.7,7.9 46.1,11.9 10.8,2.8 21.5,5.6 32.3,8.3 0.3,-0.2 0.6,-0.1 0.8,-0.1 z"
   class="st0" />
	<path
   style="clip-rule:evenodd;fill:#f1b5d6;fill-rule:evenodd;stroke:#ffffff;stroke-miterlimit:10"
   id="path14"
   d="m 686.5,503.1 c 0.2,-0.6 0.5,-1.1 0.7,-1.5 8.8,-15.1 17.5,-30.2 26.3,-45.3 1.1,-1.8 2.1,-3.7 3.2,-5.5 0.5,-0.9 0.5,-0.9 1.4,-0.4 6.7,3.7 13.5,7.4 20.2,11 0.6,0.3 1,0.7 1.4,1.3 2.4,3.6 4.8,7.1 7.2,10.7 0,0.1 0.1,0.1 0.1,0.2 0.6,0.9 0.6,1 -0.3,1.7 -0.5,0.4 -1.1,0.8 -1.6,1.2 -6.4,5 -12.8,10 -19.2,15 -0.5,0.4 -1.1,0.7 -1.8,0.9 -12.4,3.5 -24.7,7 -37.1,10.6 -0.2,0.1 -0.3,0.1 -0.5,0.1 z"
   class="st0" />
	<path
   style="clip-rule:evenodd;fill:#f1b5d6;fill-rule:evenodd;stroke:#ffffff;stroke-miterlimit:10"
   id="path16"
   d="m 715.1,451.1 c 0.1,0.4 -0.2,0.7 -0.4,1 -7.4,12.7 -14.8,25.4 -22.1,38.1 -2.3,4 -4.6,7.9 -6.9,11.9 -0.1,0.2 -0.2,0.3 -0.3,0.5 -0.4,0.6 -0.5,0.6 -1.1,0.2 -0.8,-0.6 -1.5,-1.2 -2.3,-1.9 -7.7,-6.4 -15.4,-12.8 -23.1,-19.1 -0.2,-0.2 -0.5,-0.3 -0.5,-0.6 0.8,-0.7 55.8,-29.9 56.7,-30.1 z"
   class="st0" />
	<path
   style="clip-rule:evenodd;fill:#f1b5d6;fill-rule:evenodd;stroke:#ffffff;stroke-miterlimit:10"
   id="path18"
   d="m 678.6,372.1 c 0.3,0.4 0.6,0.7 0.9,1.1 10.4,13.3 20.8,26.6 31.2,39.9 5.4,6.8 10.7,13.7 16.1,20.5 0.5,0.6 0.9,1.3 1.2,2 3.2,7.7 6.5,15.5 9.7,23.2 0.2,0.4 0.4,0.8 0.4,1.3 -0.4,0 -0.7,-0.2 -1,-0.4 -5,-2.7 -10,-5.5 -15,-8.2 -1.2,-0.7 -2.4,-1.4 -3.7,-2 -0.7,-0.4 -1.2,-0.9 -1.5,-1.6 -3.2,-6.3 -6.4,-12.6 -9.6,-18.9 -5.3,-10.4 -10.6,-20.9 -15.9,-31.3 -4.1,-8.1 -8.3,-16.3 -12.4,-24.4 -0.2,-0.4 -0.3,-0.7 -0.5,-1.1 0,0 0,0 0.1,-0.1 z"
   class="st0" />
	<path
   style="clip-rule:evenodd;fill:#f1b5d6;fill-rule:evenodd;stroke:#ffffff;stroke-miterlimit:10"
   id="path20"
   d="m 723.9,493.7 c 0.1,0.4 -0.2,0.6 -0.3,0.8 -5.3,8.8 -10.6,17.5 -15.9,26.3 -0.5,0.8 -0.5,0.8 -1.3,0.2 -6.3,-5.2 -12.7,-10.5 -19,-15.7 -0.3,-0.2 -0.7,-0.4 -0.6,-0.8 0.1,-0.3 0.5,-0.3 0.9,-0.4 11.8,-3.4 23.6,-6.8 35.5,-10.1 0.1,-0.3 0.3,-0.5 0.7,-0.3 z"
   class="st0" />
</g>
</svg>