<?xml version="1.0" encoding="UTF-8" standalone="no"?>
<svg
   xmlns:dc="http://purl.org/dc/elements/1.1/"
   xmlns:cc="http://creativecommons.org/ns#"
   xmlns:rdf="http://www.w3.org/1999/02/22-rdf-syntax-ns#"
   xmlns:svg="http://www.w3.org/2000/svg"
   xmlns="http://www.w3.org/2000/svg"
   height="4056.667"
   width="2508.6526"
   id="svg92"
   xml:space="preserve"
   viewBox="0 0 2508.6526 4056.667"
   y="0px"
   x="0px"
   version="1.1"><metadata
   id="metadata98"><rdf:RDF><cc:Work
       rdf:about=""><dc:format>image/svg+xml</dc:format><dc:type
         rdf:resource="http://purl.org/dc/dcmitype/StillImage" /></cc:Work></rdf:RDF></metadata><defs
   id="defs96" />
<style
   id="style2"
   type="text/css">
	.st0{display:none;}
	.st1{fill:#353535;}
	.st2{fill:#171516;}
	.st3{fill:#FFDDAC;}
	.st4{fill:#FFFFFF;}
	.st5{fill:#3D4D5C;}
	.st6{opacity:0.2;}
	.st7{fill:#ED755C;}
	.st8{fill:#E8E6E7;}
	.st9{fill:#54667A;}
	.st10{fill:#F5D0B8;}
	.st11{fill:#C73B2A;}
	.st12{fill:#4A4342;}
	.st13{fill:#666261;}
	.st14{fill:#3E2C38;}
	.st15{fill:#333333;}
	.st16{opacity:0.5;fill:#FFFFFF;}
	.st17{fill:#3D3736;}
	.st18{fill:#F4C48B;}
	.st19{fill:#FCD6A4;}
</style>
<g
   transform="translate(-306.74496,-434.1)"
   style="display:none"
   class="st0"
   id="Layer_2">
</g>
<g
   transform="translate(-306.74496,-434.1)"
   id="Layer_1">
	<path
   style="fill:#353535"
   id="path5"
   d="m 1458.9,4301.1 c -6.5,17.3 -13,35.3 -11.8,53.8 2.1,34 30,61.1 60,77.3 34.6,18.6 73.6,27.1 112.1,34.8 110.5,21.9 226.5,37.7 334.4,5.4 11.5,-3.5 23.3,-7.7 31.8,-16.3 13.2,-13.5 14.9,-35.7 7.4,-53 -7.5,-17.3 -22.9,-30.4 -39.6,-39.2 -16.7,-8.9 -35.1,-14.2 -53,-20.4 -92.1,-31.7 -175.8,-87.7 -240.2,-160.7 -6.1,-6.9 -12.4,-14.3 -21.1,-17.6 -8.2,-3.1 -17.4,-2.1 -26.1,-1.1 -21.7,2.6 -43.3,5.2 -65,7.8 -13.7,1.7 -37.8,-0.9 -45.6,12.5 -9.1,15.6 -13.5,36.9 -19.8,53.8 -7.9,21 -15.7,42 -23.5,62.9 z"
   class="st1" />
	<path
   style="fill:#353535"
   id="path7"
   d="m 1317.9,4301.1 c 6.5,17.3 13,35.3 11.8,53.8 -2.1,34 -30,61.1 -60,77.3 -34.6,18.6 -73.6,27.1 -112.1,34.8 -110.5,21.9 -226.5,37.7 -334.4,5.4 -11.5,-3.5 -23.3,-7.7 -31.8,-16.3 -13.2,-13.5 -14.9,-35.7 -7.4,-53 7.5,-17.3 22.9,-30.4 39.6,-39.2 16.7,-8.9 35.1,-14.2 53,-20.4 92.1,-31.7 175.8,-87.7 240.2,-160.7 6.1,-6.9 12.4,-14.3 21.1,-17.6 8.2,-3.1 17.4,-2.1 26.1,-1.1 21.7,2.6 43.3,5.2 65,7.8 13.7,1.7 37.8,-0.9 45.6,12.5 9.1,15.6 13.5,36.9 19.8,53.8 7.9,21 15.7,42 23.5,62.9 z"
   class="st1" />
	<path
   style="fill:#171516"
   id="path9"
   d="m 874.8,3264.2 c 0,0 141.1,654.1 209.4,864.4 h 236.2 c 0,0 -30.4,-527.7 -17.5,-708.5 0,0 72.9,8.3 95,1.4 v -156.4 z"
   class="st2" />
	<path
   style="fill:#171516"
   id="path11"
   d="m 1304,4210.2 h -207.4 c -18.3,0 -33.1,-14.8 -33.1,-33.1 v -35.8 c 0,-18.3 14.8,-33.1 33.1,-33.1 H 1304 c 18.3,0 33.1,14.8 33.1,33.1 v 35.8 c -0.1,18.3 -14.9,33.1 -33.1,33.1 z"
   class="st2" />
	<path
   style="fill:#171516"
   id="path13"
   d="m 1908.5,3264.2 c 0,0 -142.5,654.1 -210.8,864.4 h -236.2 c 0,0 31.8,-527.7 18.9,-708.5 0,0 -71.5,8.3 -93.6,1.4 v -156.4 z"
   class="st2" />
	<path
   style="fill:#171516"
   id="path15"
   d="m 1478,4210.2 h 207.4 c 18.3,0 33.1,-14.8 33.1,-33.1 v -35.8 c 0,-18.3 -14.8,-33.1 -33.1,-33.1 H 1478 c -18.3,0 -33.1,14.8 -33.1,33.1 v 35.8 c 0.1,18.3 14.9,33.1 33.1,33.1 z"
   class="st2" />
	<path
   style="fill:#ffddac"
   id="path17"
   d="m 609.9,2495.7 c 39.5,-96.5 102.6,-184.8 188.5,-243.9 -19.9,-37.7 -49.1,-70.4 -84.3,-94.3 -55.2,-37.5 -80.1,5.7 -111.8,45.4 -35.2,44.2 -66.9,91.1 -94.4,140.5 -54.2,97.5 -92.3,203.9 -112.3,313.6 -11.2,61.7 -16.7,124.5 -16,187.3 1,97.7 16.2,194.5 32.4,291 0,0 -25.3,116.4 -11.2,152.1 0,0 7.3,97.9 73.5,132.9 0,0 58.3,37.8 64.2,0.9 0,0 84.2,27 77.9,-39.2 0,0 91,28.5 74.3,-60.2 0,0 69.5,6.4 33,-64.7 0,0 -9,-16.2 -11.2,-66.3 0,0 -5,-57.5 -68,-75.9 0,0 -6.6,-14.1 -49,-73.1 -11.6,-16.6 -20.9,-34.7 -27.9,-53.5 -22,-59.5 -23,-124.4 -19.6,-187.7 5.5,-104.1 22.4,-208.5 61.9,-304.9 z"
   class="st3" />
	<path
   style="fill:#ffffff"
   id="path19"
   d="m 2257.6,2225.9 -182.8,191.6 -120.8,-45.8 -87.9,664.5 c 0,0 -120.1,67 -457.8,60.7 -309.9,1.6 -489.4,-60.7 -489.4,-60.7 l -71.3,-664.5 -120.8,45.8 -182.8,-191.6 435.2,-281.1 11.9,-7.7 h 0.9 l 369.9,-1 v -0.3 l 38.9,0.1 39,-0.1 v 0.3 l 369.9,1 h 0.8 l 6.3,4.1 z"
   class="st4" />
	<path
   style="fill:#3d4d5c"
   id="path21"
   d="m 2235.2,2160.2 -98.9,322.7 -131.9,-57.9 -95.9,839.2 c 0,0 -131,84.6 -499.5,76.6 -338.2,2 -534.1,-76.6 -534.1,-76.6 l -77.8,-839.2 -131.9,57.9 -94.3,-327 369.7,-269.9 13,-9.7 h 0.9 l 201.5,113.9 241.9,756.7 243.4,-763.5 205.6,-107.1 h 0.8 l 6.8,5.2 z"
   class="st5" />
	<polygon
   style="opacity:0.2"
   id="polygon23"
   points="934.7,2161.6 1040.9,2213.3 971.7,2273 1399.8,2746.5 1066.8,1783.8 931.6,1892.5 "
   class="st6" />
	<polygon
   style="opacity:0.2"
   id="polygon25"
   points="1864,2161.1 1757.8,2212.8 1827.1,2272.5 1398.9,2745.9 1731.9,1783.3 1867.1,1892 "
   class="st6" />
	<polygon
   style="fill:#ed755c"
   id="polygon27"
   points="1447,2226.9 1498.5,2115.6 1396.7,2041.6 1396.7,2040.1 1395.7,2040.8 1394.6,2040.1 1394.6,2041.6 1292.9,2115.6 1344.3,2226.9 1252.3,2569.8 1394.6,2747.1 1394.6,2749.7 1395.7,2748.4 1396.7,2749.7 1396.7,2747.1 1539.1,2569.8 "
   class="st7" />
	<polygon
   style="fill:#e8e6e7"
   id="polygon29"
   points="1396.4,2061.3 1684,1878.9 1614.5,2273.2 "
   class="st8" />
	<polygon
   style="fill:#e8e6e7"
   id="polygon31"
   points="1394.9,2061.3 1107.4,1878.9 1182.4,2267.8 "
   class="st8" />
	<polygon
   style="fill:#54667a"
   id="polygon33"
   points="945.5,2152.2 1050.5,2206.2 980,2264.3 1397.6,2747.1 1085.8,1777.3 948.3,1883.1 "
   class="st9" />
	<polygon
   style="fill:#54667a"
   id="polygon35"
   points="1850.3,2152.2 1745.3,2206.2 1815.8,2264.3 1397.6,2747.1 1710,1777.3 1847.5,1883.1 "
   class="st9" />
	<g
   id="g73">
		<path
   style="opacity:0.2"
   id="path37"
   d="m 1940.7,1161.7 v 483.8 c 0,27.6 -3.1,54.6 -9,80.6 -16.2,56.2 -45.5,107.4 -84.7,150.1 h 0.8 l 6.8,5.2 c -73.7,89.1 -188,146.6 -315.7,146.6 0,0 -58.9,54 -143.2,54 -84.4,0 -143.2,-54 -143.2,-54 -125.5,0 -238.1,-55.5 -311.9,-142 l 13,-9.7 h 0.9 C 893,1809.1 855.7,1721.5 855.7,1625.9 V 1142 c 0,-27.1 3,-53.6 8.7,-79.1 46.1,-162.8 203,-283.5 388.1,-283.5 h 286.3 c 221,-0.1 401.9,172 401.9,382.3 z"
   class="st6" />
		<path
   style="fill:#ffddac"
   id="path39"
   d="m 1945.8,1141.9 v 483.9 c 0,34.6 -4.9,68.3 -14.1,100.3 -16.2,56.2 -45.5,107.4 -84.7,150.1 -73.8,80.8 -182.5,131.9 -303.1,131.9 0,0 -58.8,54.1 -143.2,54.1 -84.3,0 -143.2,-54.1 -143.2,-54.1 -120.5,0 -229.2,-51.2 -303,-131.9 C 893,1809 855.7,1721.4 855.7,1625.8 v -483.9 c 0,-27.1 3,-53.6 8.7,-79.1 C 903,890.1 1065,759.6 1257.5,759.6 h 286.3 c 221.1,0 402,172.1 402,382.3 z"
   class="st3" />
		<path
   style="fill:#ffffff"
   id="path41"
   d="m 1633.5,1738.1 c -19.7,53.2 -69.7,116.9 -193.6,148.7 0,0 -181.7,55.3 -266.9,-137.7 -3.5,-7.5 -6.7,-15.4 -9.6,-23.7 0,0 211.7,102.5 480.7,-74.5 0.1,0 7.1,39.4 -10.6,87.2 z"
   class="st4" />
		<path
   style="fill:#f5d0b8"
   id="path43"
   d="m 1382,1898 c -61.9,0 -157.7,-22.5 -212.7,-147.3 -3.3,-7.2 -6.5,-15 -9.7,-24 l -3.5,-9.7 9.3,4.5 c 2.1,1 212.8,99.3 476.6,-74.2 l 5.4,-3.5 1.1,6.3 c 0.3,1.6 7,41 -10.9,89.4 v 0 c -18.8,50.8 -68.1,118.4 -196.5,151.3 -0.7,0.3 -24.7,7.2 -59.1,7.2 z m -211.2,-165 c 2,5.1 4,9.8 6.1,14.3 82.6,187.3 254.6,137.7 261.8,135.5 125,-32.1 172.7,-97.2 190.8,-146.1 v 0 c 12.9,-34.9 12.3,-65.5 11.2,-78.4 -234,150.8 -426.3,91.5 -469.9,74.7 z"
   class="st10" />
		<path
   style="fill:#c73b2a"
   id="path45"
   d="m 1633.5,1738.1 c -19.7,53.2 -69.7,116.9 -193.6,148.7 0,0 -181.7,55.3 -266.9,-137.7 89.1,49 280,123 460.5,-11 z"
   class="st11" />
		<path
   style="fill:#4a4342"
   id="path47"
   d="m 1962.7,1622.3 -13.8,15.5 c 0,0 -5,-250 -21.3,-312.7 0,0 -37,-141.1 -94.4,-168.8 0,0 50.5,-173.8 -81.4,-231.5 0,0 -160,161.5 -421.3,160.4 0,0 -182,13.8 -346.8,-99.2 0,0 -39.1,64.6 -7.3,148.8 0,0 -106.2,111.9 -119.7,249.2 0,0 -5.4,179.6 2.9,225.8 0,0 -9.7,-4.4 -46.5,-44 -29.7,-31.9 -41.8,-73.1 -52,-114.5 -31.6,-128 -31.8,-323.6 -4.2,-428.1 0,0 40.7,-175.4 76.5,-189.2 0,0 -81.4,-249.2 -64.3,-313 0,0 48,121.5 208.4,106.9 0,0 -68.4,-93.8 -52.9,-193.8 0,0 122.1,90 251.6,66.1 0,0 82.3,-8.8 135.6,-29.1 22.6,-8.6 45.8,-15.6 69.7,-19.7 91.1,-15.9 285.9,-33.3 380.1,83.4 0,0 74.5,77.3 86.7,155.2 0,0 200.3,140.2 210,384.7 0,0 17.6,177.5 -5.5,333.9 -8,54.5 -25.4,107.5 -50.9,156.9 v 0 c -10.5,20.4 -23.7,39.5 -39.2,56.8 z"
   class="st12" />
		<path
   style="fill:#666261"
   id="path49"
   d="m 811.9,624.9 c 0,0 161.2,566 749,363 0,0 -579.7,36.9 -749,-363 z"
   class="st13" />
		<path
   style="fill:#666261"
   id="path51"
   d="m 971.8,518.9 c 0,0 183.5,495.5 694.3,277.6 0,-0.1 -515.1,69 -694.3,-277.6 z"
   class="st13" />
		<path
   style="fill:#3e2c38"
   id="path53"
   d="m 1136.6,1369.1 c -12.2,12.9 -17.5,32.7 -11.2,49.3 4.5,11.9 14.5,21.3 26.1,26.7 11.6,5.4 24.7,7 37.4,6.3 14.9,-0.8 29.9,-4.8 41.9,-13.7 12,-8.9 20.5,-23.1 20.3,-38 -0.2,-15 -9.3,-29.1 -21.7,-37.6 -20.9,-14.3 -52.6,-16.3 -75.4,-5.5 -6.5,3.1 -12.4,7.3 -17.4,12.5 z"
   class="st14" />
		<path
   style="fill:#ffffff"
   id="path55"
   d="m 1196.7,1361.2 c -5.5,-0.3 -11.6,1.8 -14.4,6.6 -3.1,5.2 -1.7,11.8 0.7,17.3 4.3,9.6 11.5,17.9 20.5,23.3 6.2,3.8 14.1,6.2 20.7,3.1 5.8,-2.7 9.2,-9.1 9.3,-15.4 0.1,-6.3 -2.7,-12.4 -6.7,-17.4 -7.2,-9.1 -18.2,-16.8 -30.1,-17.5 z"
   class="st4" />
		<path
   style="fill:#3e2c38"
   id="path57"
   d="m 1575.9,1369.1 c -12.2,12.9 -17.5,32.7 -11.2,49.3 4.5,11.9 14.5,21.3 26.1,26.7 11.6,5.4 24.7,7 37.4,6.3 14.9,-0.8 29.9,-4.8 41.9,-13.7 12,-8.9 20.5,-23.1 20.3,-38 -0.2,-15 -9.3,-29.1 -21.7,-37.6 -20.9,-14.3 -52.6,-16.3 -75.4,-5.5 -6.5,3.1 -12.5,7.3 -17.4,12.5 z"
   class="st14" />
		<path
   style="fill:#ffffff"
   id="path59"
   d="m 1635.9,1361.2 c -5.5,-0.3 -11.6,1.8 -14.4,6.6 -3.1,5.2 -1.7,11.8 0.7,17.3 4.3,9.6 11.5,17.9 20.5,23.3 6.2,3.8 14.1,6.2 20.7,3.1 5.8,-2.7 9.2,-9.1 9.3,-15.4 0.1,-6.3 -2.7,-12.4 -6.7,-17.4 -7.2,-9.1 -18.2,-16.8 -30.1,-17.5 z"
   class="st4" />
		<g
   id="g67">
			<path
   style="fill:#333333"
   id="path61"
   d="m 1956.3,1301 c -2.8,-12.2 -8.8,-19.8 -22.7,-21.5 -20,-2.5 -38.1,-11.4 -55,-22.4 -39.9,-25.8 -82.9,-43.8 -130.2,-50.5 -42.6,-6.1 -84.3,-1.6 -126.1,7.5 -45.1,9.7 -80.9,34.6 -114.1,64.6 -7.2,6.5 -14.1,13.3 -21.1,20 -12.2,11.6 -21.5,12.5 -35.7,3.3 -12.9,-8.4 -26,-12.8 -39.2,-13.9 -13.2,1.1 -26.3,5.6 -39.2,13.9 -14.2,9.2 -23.5,8.3 -35.7,-3.3 -7,-6.7 -13.9,-13.5 -21.1,-20 -33.2,-30 -69,-54.9 -114.1,-64.6 -41.8,-9.1 -83.5,-13.6 -126.1,-7.5 -47.3,6.8 -90.3,24.7 -130.2,50.5 -16.9,11 -35,19.9 -55,22.4 -13.9,1.8 -19.9,9.4 -22.7,21.5 -1.4,6.2 -2.2,12.6 -3.4,18.9 v 24 c 3.4,3.9 6,9 10.2,11.6 16.3,9.9 25.1,24.1 28.8,42.5 3.5,17.2 7.3,34.5 12.6,51.4 14.8,47.6 39.8,87.7 83.1,115.3 54.6,34.8 112.3,50.3 176.4,33.6 45.7,-11.8 86.9,-32 119.8,-66.9 27.2,-28.8 44.2,-63.4 56.1,-100.7 3.7,-11.4 6.6,-23 10.3,-34.4 4.9,-15 15.2,-24.9 31,-26.8 6.3,-0.7 12.8,-1.1 19.3,-1.3 6.4,0.2 12.9,0.6 19.3,1.3 15.8,1.9 26.1,11.7 31,26.8 3.7,11.4 6.6,23 10.3,34.4 11.9,37.3 28.9,71.9 56.1,100.7 32.9,34.9 74.1,55.1 119.8,66.9 64,16.6 121.8,1.2 176.4,-33.6 43.3,-27.6 68.3,-67.7 83.1,-115.3 5.2,-16.8 9.1,-34.1 12.6,-51.4 3.7,-18.4 12.5,-32.6 28.8,-42.5 4.2,-2.5 6.8,-7.7 10.2,-11.6 v -24 c -1.4,-6.3 -2.2,-12.7 -3.6,-18.9 z m -720.2,239.1 c -33.3,23.6 -70.6,34.6 -114.3,35.1 -52.6,-1.4 -100.6,-20.6 -137.8,-62.8 -57.5,-65.2 -54.6,-160.1 6.3,-222.2 72.9,-74.6 197.9,-74.4 270.6,0.3 71.7,73.6 60.2,189.5 -24.8,249.6 z m 604.2,-27.8 c -37.2,42.2 -85.1,61.5 -137.8,62.8 -43.7,-0.4 -81,-11.4 -114.3,-35.1 -85,-60.1 -96.5,-175.9 -24.8,-249.6 72.7,-74.8 197.7,-74.9 270.6,-0.3 60.8,62.1 63.8,157 6.3,222.2 z"
   class="st15" />
			<path
   style="opacity:0.5;fill:#ffffff"
   id="path63"
   d="m 1236.1,1540.1 c -33.3,23.6 -70.6,34.6 -114.3,35.1 -52.6,-1.4 -100.6,-20.6 -137.8,-62.8 -57.5,-65.2 -54.6,-160.1 6.3,-222.2 72.9,-74.6 197.9,-74.4 270.6,0.3 71.7,73.6 60.2,189.5 -24.8,249.6 z"
   class="st16" />
			<path
   style="opacity:0.5;fill:#ffffff"
   id="path65"
   d="m 1840.3,1512.3 c -37.2,42.2 -85.1,61.5 -137.8,62.8 -43.7,-0.4 -81,-11.4 -114.3,-35.1 -85,-60.1 -96.5,-175.9 -24.8,-249.6 72.7,-74.8 197.7,-74.9 270.6,-0.3 60.8,62.1 63.8,157 6.3,222.2 z"
   class="st16" />
		</g>
		<path
   style="fill:#3d3736"
   id="path69"
   d="m 989.6,1156 c 0,0 18.5,-49.1 106.9,-56.6 0,0 177.6,-13.2 209,45.3 l -139.2,-11.6 c -10.7,-0.9 -21.5,-1.1 -32.3,-0.6 -29.7,1.3 -90.8,6.1 -144.4,23.5 z"
   class="st17" />
		<path
   style="fill:#3d3736"
   id="path71"
   d="m 1815.2,1156 c 0,0 -18.5,-49.1 -106.9,-56.6 0,0 -177.6,-13.2 -209,45.3 l 139.2,-11.6 c 10.7,-0.9 21.5,-1.1 32.3,-0.6 29.7,1.3 90.7,6.1 144.4,23.5 z"
   class="st17" />
	</g>
	<path
   style="fill:#3d4d5c"
   id="path75"
   d="m 642.7,2545.1 c 85.5,-96.8 108.4,-87.2 194.3,-146.2 -19.9,-37.7 -105.6,-202.4 -122.9,-241.3 -34.1,-76.9 -51.4,-49.2 -122.5,-14.4 -49.4,24.2 -150.6,122 -178.1,171.4 -54.2,97.5 -75.1,167.6 -95,277.3 -11.2,61.7 -15.7,176.4 -7.7,238.6 13.1,102.6 42.9,214 78.8,291.4 0,0 194,-42.3 261.5,-55.3 0,0 -60.4,-162.2 -67.6,-230.2 -10.9,-103.5 -9.8,-213.2 59.2,-291.3 z"
   class="st5" />
	<path
   style="fill:#3d4d5c"
   id="path77"
   d="m 2186.7,2564 c -85.5,-96.8 -108.4,-87.2 -194.3,-146.2 19.9,-37.7 105.6,-202.4 122.9,-241.3 34.1,-76.9 51.4,-49.2 122.5,-14.4 49.4,24.2 150.6,122 178.1,171.4 54.2,97.5 75.1,167.6 95,277.3 11.2,61.7 15.7,176.4 7.7,238.6 -13.1,102.6 -42.9,214 -78.8,291.4 0,0 -194,-42.3 -261.5,-55.3 0,0 60.4,-162.2 67.6,-230.2 11,-103.5 9.9,-213.2 -59.2,-291.3 z"
   class="st5" />
	<path
   style="fill:#ffddac"
   id="path79"
   d="m 2704.2,2099.8 c -148.1,132.6 -61.8,380.8 -61.8,380.8 l 35.6,54.6 h -284.7 c 4,-14.1 7.2,-28.2 9.5,-42.5 19.7,-110.3 -0.2,-222.2 -11.3,-271 -5.5,-24.3 -7.9,-49.6 -3.9,-74.2 20.1,-126.2 141.6,-176.1 141.6,-176.1 10.1,-3.8 19.9,-7 29,-9.5 156,-45.5 166.9,52.7 163.4,101.2 -0.9,14 -6.9,27.3 -17.4,36.7 z"
   class="st3" />
	<path
   style="fill:#f4c48b"
   id="path81"
   d="m 2578,1956.7 c -14.9,14.6 -26.9,33.4 -34.5,45.7 -19.1,30.8 -48.5,53.2 -72.9,79.5 -13.5,14.5 -25.8,30.2 -34,48.3 -16.7,37 -13.5,79.5 -9.9,119.8 5,57.6 9.9,115.2 14.9,172.8 1.8,22.9 -2.2,61.3 -20.9,74.4 -6.5,4.6 -12,7.3 -20,7.7 19.9,-111.3 0.7,-231.1 -9.7,-282.6 -6,-29.6 -7.2,-60.1 -0.4,-89.5 26.7,-115.4 138.7,-161.3 138.7,-161.3 26.8,-10.1 39.5,-12.3 48.7,-14.8 z"
   class="st18" />
	<path
   style="fill:#fcd6a4"
   id="path83"
   d="m 2071.1,2676.9 c 1.4,-42.9 27.8,-80.9 67.3,-97.6 143.5,-60.7 536.3,-200.2 650.6,33.8 0,0 59.6,84.4 -48,149 0,0 179.3,140.7 -18.8,276.5 0,0 98.3,139.1 -54,202 0,0 67.9,137.4 -127.5,183.8 0,0 -300.6,25.2 -381.6,-173.1 -4.2,-10.2 -9.5,-20 -16.7,-28.4 l -5.3,-6.2 c -9,-10.5 -20.3,-18.7 -32.7,-24.8 -37.3,-18.3 -112.2,-73.8 -0.7,-194.8 0,0 -208.6,-110.9 1.7,-213.6 -0.2,0.1 -36.7,-34.4 -34.3,-106.6 z"
   class="st19" />
	<path
   style="fill:#f4c48b"
   id="path85"
   d="m 2358.7,2714.8 c 77.2,-17 155.3,-34.1 234.3,-31.9 -77.1,29.5 -157,51.8 -238.2,66.8 -40.6,7.5 -81.6,13.1 -122.7,16.9 -37.2,3.4 -84.2,12.1 -120.7,4.7 14.5,-9.7 41,-10.9 58.6,-14.8 21.4,-4.7 42.9,-9.5 64.3,-14.2 41.4,-9.2 82.9,-18.4 124.4,-27.5 z"
   class="st18" />
	<path
   style="fill:#f4c48b"
   id="path87"
   d="m 2509.5,2965.9 c -12.2,22.5 -35.9,37 -60.6,43.9 -24.7,6.9 -50.7,7.1 -76.3,7.3 -50.4,0.3 -100.8,0.6 -151.3,0.9 -31.6,0.2 -65.4,0.4 -95.2,-11.3 -9.6,-3.8 -22.3,-10.7 -14.3,-23 7.1,-11 31.8,-8 43.3,-8.9 74.8,-6.1 149.8,-9.6 224.9,-10.3 43.2,-0.4 86.4,0.1 129.5,1.4 z"
   class="st18" />
	<path
   style="fill:#f4c48b"
   id="path89"
   d="m 2492.2,3192.5 c -68.5,15 -138.2,24.3 -208.2,27.9 -33.9,1.7 -68.3,1.9 -101.8,-4.1 -13.6,-2.4 -102.3,-6.9 -44,-37.7 30.5,-16.2 78.3,-10 112.6,-11.2 38.4,-1.3 76.8,-0.1 115.1,3.6 42.5,4 84.7,11.2 126.3,21.5 z"
   class="st18" />
</g>
</svg>