<?xml version="1.0" encoding="UTF-8" standalone="no"?>
<svg
   xmlns:dc="http://purl.org/dc/elements/1.1/"
   xmlns:cc="http://creativecommons.org/ns#"
   xmlns:rdf="http://www.w3.org/1999/02/22-rdf-syntax-ns#"
   xmlns:svg="http://www.w3.org/2000/svg"
   xmlns="http://www.w3.org/2000/svg"
   xmlns:xlink="http://www.w3.org/1999/xlink"
   height="543.5"
   width="583.70001"
   xml:space="preserve"
   viewBox="0 0 583.70001 543.5"
   y="0px"
   x="0px"
   id="Layer_1"
   version="1.1"><metadata
   id="metadata111"><rdf:RDF><cc:Work
       rdf:about=""><dc:format>image/svg+xml</dc:format><dc:type
         rdf:resource="http://purl.org/dc/dcmitype/StillImage" /></cc:Work></rdf:RDF></metadata>
<style
   id="style2"
   type="text/css">
	.st0{clip-path:url(#SVGID_2_);fill:#FEE3C5;}
	.st1{clip-path:url(#SVGID_2_);fill:#3A4C64;}
	.st2{clip-path:url(#SVGID_2_);fill:#F4F4F4;}
	.st3{clip-path:url(#SVGID_2_);fill:#D6AE8A;}
	.st4{clip-path:url(#SVGID_2_);fill:#D0567B;}
	.st5{clip-path:url(#SVGID_2_);fill:#9B7B66;}
	.st6{clip-path:url(#SVGID_2_);fill:#527073;}
	.st7{clip-path:url(#SVGID_2_);fill:#FAEFDB;}
	.st8{clip-path:url(#SVGID_2_);fill:#CC5A28;}
	.st9{clip-path:url(#SVGID_2_);fill:#FFF9EF;}
	.st10{clip-path:url(#SVGID_2_);fill:#E3B486;}
	.st11{clip-path:url(#SVGID_2_);fill:#07686B;}
	.st12{clip-path:url(#SVGID_2_);fill:#876653;}
	.st13{clip-path:url(#SVGID_2_);fill:#F3B840;}
	.st14{clip-path:url(#SVGID_2_);fill:#CCB79C;}
	.st15{clip-path:url(#SVGID_2_);fill:#FFCC9A;}
	.st16{clip-path:url(#SVGID_2_);fill:#C4D165;}
</style>
<defs
   id="defs5">
	<rect
   height="543.5"
   width="583.70001"
   y="178.10001"
   x="468.79999"
   id="SVGID_1_" />
</defs>
<clipPath
   id="SVGID_2_">
	<use
   height="100%"
   width="100%"
   y="0"
   x="0"
   id="use7"
   style="overflow:visible"
   xlink:href="#SVGID_1_" />
</clipPath>
<path
   transform="translate(-468.79999,-178.10001)"
   style="fill:#fee3c5"
   id="path10"
   clip-path="url(#SVGID_2_)"
   d="m 702.2,580.8 c 3.8,-6.6 10.1,-11.7 17,-15.6 6.9,-3.9 14.4,-6.6 21.7,-9.7 13.7,-5.7 28,-11.6 38.2,-21.8 20.3,-20.2 49,-16.9 74.8,-26.9 2.7,-1 4.7,-3.9 4.4,-6.6 -0.3,-2.6 -3,-4.5 -5.7,-4.9 -2.8,-0.4 -5.5,0.3 -8.2,0.9 -13.2,3.2 -26.8,5 -40.4,5.4 -3.5,0.1 -8,-0.4 -9.2,-3.5 -1.4,-3.4 2.3,-6.6 5.5,-8.7 17.6,-11.4 33.8,-24.8 48,-39.8 1.7,-1.8 3.5,-3.7 4.3,-6.1 0.9,-2.3 0.7,-5.1 -1.1,-6.9 -1.9,-1.8 -5,-2.1 -7.6,-1.3 -2.6,0.8 -4.7,2.4 -6.8,4 -13.1,10.1 -26.3,20.3 -39.4,30.4 -3.5,2.7 -8.5,5.6 -12.4,3.2 16.7,-16.2 33.5,-32.4 50.2,-48.6 3.8,-3.7 8,-8.8 5.6,-13.5 -1.9,-3.8 -7.4,-4.9 -11.6,-3.6 -4.2,1.3 -7.5,4.5 -10.6,7.5 -13.6,13.4 -27.2,26.7 -40.9,40.1 -1.6,1.6 -3.9,3.3 -5.9,2.3 -1.9,-0.9 -2.1,-3.3 -1.8,-5.3 2.3,-18.5 17.9,-33 25.4,-50.3 1,-2.3 1.9,-4.8 1.8,-7.3 -0.1,-2.5 -1.2,-5.1 -3.5,-6.5 -3,-1.7 -7.1,-0.8 -9.8,1.3 -2.7,2.1 -4.4,5.1 -6,8 -11.4,20.4 -26.1,39.3 -39.2,58.7 -3.2,4.7 -8.4,8.1 -14.3,9.3 -2.1,0.4 -4.5,0.5 -6.1,-0.8 -1.4,-1.1 -1.9,-2.9 -1.8,-4.5 0.1,-1.7 0.7,-3.3 1.3,-4.8 3.1,-8.9 3.9,-18.5 2.5,-27.7 -0.7,-4.7 -2.3,-9.7 -6.4,-12.5 -1.8,-1.2 -4.2,-1.9 -6.2,-1.1 -3.1,1.2 -3.6,5 -3.8,8.1 -0.8,10.9 -3.7,21.6 -8.6,31.6 -3.9,8 -9.1,15.6 -10.7,24.2 -2.4,13.3 4,26.7 2.8,40.2 -14,12.2 -29.1,23.8 -45.2,33.4 15.8,14.2 31.6,28.3 47.5,42.5 4,-3.9 9.4,-8 12.2,-12.8 z"
   class="st0" />
<path
   transform="translate(-468.79999,-178.10001)"
   style="fill:#3a4c64"
   id="path12"
   clip-path="url(#SVGID_2_)"
   d="m 721.6,580.4 c 0,0 -132,88 -241,191.2 -10.3,9.8 -20.4,19.7 -30.2,29.7 l -63.8,-51.6 c 72.9,-58 225.5,-180.6 276.2,-229.2 0,0 0.9,4 7,12.2 6.3,8.4 18.1,21.2 40.2,38.8 3.6,2.8 7.5,5.8 11.6,8.9 z"
   class="st1" />
<path
   transform="translate(-468.79999,-178.10001)"
   style="fill:#f4f4f4"
   id="path14"
   clip-path="url(#SVGID_2_)"
   d="m 782.4,397.1 8.2,4.5 c 0.7,0.4 1.6,0.2 2,-0.5 l 2.6,-4.2 c 0,0 1.8,-3.5 -2.3,-6.5 0,0 -3.6,-2.4 -7.2,-0.2 0,0 -1.4,1 -2.8,3.7 l -0.9,1.3 c -0.5,0.6 -0.2,1.5 0.4,1.9 z"
   class="st2" />
<path
   transform="translate(-468.79999,-178.10001)"
   style="fill:#f4f4f4"
   id="path16"
   clip-path="url(#SVGID_2_)"
   d="m 824.1,414.8 6.7,8 c 0.6,0.7 1.6,0.8 2.4,0.3 l 4.7,-3.5 c 0,0 3.5,-3 0.5,-7.8 0,0 -2.7,-4 -7.6,-3.1 0,0 -1.9,0.5 -4.7,2.8 l -1.5,1.1 c -0.9,0.5 -1,1.5 -0.5,2.2 z"
   class="st2" />
<path
   transform="translate(-468.79999,-178.10001)"
   style="fill:#f4f4f4"
   id="path18"
   clip-path="url(#SVGID_2_)"
   d="m 840,442.3 4.7,5.7 c 0.4,0.5 1.2,0.6 1.7,0.2 l 3.3,-2.5 c 0,0 2.5,-2.1 0.3,-5.5 0,0 -1.9,-2.8 -5.4,-2.2 0,0 -1.4,0.3 -3.3,2 l -1.1,0.8 c -0.5,0.3 -0.6,1 -0.2,1.5 z"
   class="st2" />
<path
   transform="translate(-468.79999,-178.10001)"
   style="fill:#f4f4f4"
   id="path20"
   clip-path="url(#SVGID_2_)"
   d="m 847.5,499.1 0.9,6.2 c 0.1,0.5 0.6,0.9 1.2,0.8 l 3.6,-0.5 c 0,0 2.9,-0.6 2.8,-4 0,0 -0.1,-2.9 -3,-3.9 0,0 -1.2,-0.3 -3.5,0.1 l -1.2,0.1 c -0.4,0.2 -0.8,0.7 -0.8,1.2 z"
   class="st2" />
<path
   transform="translate(-468.79999,-178.10001)"
   style="fill:#f4f4f4"
   id="path22"
   clip-path="url(#SVGID_2_)"
   d="m 705.5,430.6 7.3,0.7 c 0.6,0.1 1.2,-0.6 1.2,-1.6 l 0.1,-5.9 c 0,0 -0.1,-4.7 -4.1,-5.8 0,0 -3.4,-0.8 -5,3.4 0,0 -0.6,1.8 -0.5,5.5 l -0.1,1.9 c 0,1 0.5,1.8 1.1,1.8 z"
   class="st2" />
<path
   transform="translate(-468.79999,-178.10001)"
   style="fill:#d6ae8a"
   id="path24"
   clip-path="url(#SVGID_2_)"
   d="m 816.9,586.6 c -4.3,-6.3 -6,-13.9 -6.2,-21.4 -0.2,-7.5 0.8,-15 1.6,-22.4 1.4,-13.9 2.8,-28.4 -1.7,-41.7 -8.9,-26.3 8.2,-48 11.5,-73.9 0.3,-2.7 -1.3,-5.7 -4,-6.8 -2.5,-1.1 -5.6,0.2 -7.4,2.3 -1.7,2 -2.4,4.6 -3.1,7.1 -3.5,12.3 -8.5,24.2 -14.7,35.4 -1.6,2.9 -4.3,6.3 -7.8,5.8 -3.9,-0.6 -5,-5.1 -5.4,-8.7 -2,-19.9 -6.7,-39.5 -13.7,-58.4 -0.9,-2.3 -1.8,-4.7 -3.5,-6.5 -1.7,-1.8 -4.5,-3.1 -7,-2.4 -2.6,0.6 -4.4,3 -4.9,5.5 -0.5,2.5 0,5 0.4,7.5 3.1,15.6 6.1,31.3 9.2,46.9 0.8,4.2 1,9.7 -3.1,11.6 -7,-21.5 -13.9,-43 -20.9,-64.5 -1.6,-4.9 -4.4,-10.8 -9.9,-11.2 -4.5,-0.3 -8.2,3.6 -9.1,7.7 -0.9,4.1 0.5,8.3 1.8,12.2 5.8,17.6 11.7,35.2 17.5,52.8 0.7,2.1 1.2,4.7 -0.7,6 -1.7,1.1 -4.1,0.1 -5.8,-1.1 -16.2,-11 -22.1,-30.7 -34.6,-45.3 -1.7,-2 -3.6,-3.9 -6,-5.1 -2.4,-1.2 -5.4,-1.5 -7.8,-0.3 -3.1,1.6 -4.2,5.3 -3.6,8.6 0.6,3.2 2.6,6 4.5,8.8 13.5,19.2 24,40.4 35.7,60.6 2.8,4.9 3.5,10.8 1.7,16.1 -0.6,1.9 -1.7,3.9 -3.7,4.6 -1.7,0.6 -3.6,0.1 -5.1,-0.8 -1.5,-0.9 -2.7,-2.2 -3.9,-3.4 -6.8,-6.9 -15.4,-12.2 -24.7,-15.6 -4.8,-1.7 -10.2,-2.9 -14.8,-0.9 -2,0.8 -3.9,2.4 -4.1,4.5 -0.3,3.1 2.9,5.3 5.7,7 9.8,6 18.4,13.6 25.4,22.4 5.5,7.1 10.1,15 17.4,20.5 11.2,8.5 27,9.9 39,17.4 4.6,17.3 8,35.3 9.2,53.1 21,-5.9 42,-11.8 63,-17.7 -2,-5.3 -3.2,-11.7 -6.4,-16.3 z"
   class="st3" />
<path
   transform="translate(-468.79999,-178.10001)"
   style="fill:#d0567b"
   id="path26"
   clip-path="url(#SVGID_2_)"
   d="m 826.1,570.6 c 0,0 17.8,150.3 61,289.3 4.1,13.2 8.4,26.2 13,39.1 l -79.5,26.5 C 801.9,837.9 761.8,654 741.2,589 c 0,0 4.2,1.2 14.8,0.2 11,-1 28.8,-4.3 56,-13.6 4.5,-1.5 9.1,-3.1 14.1,-5 z"
   class="st4" />
<path
   transform="translate(-468.79999,-178.10001)"
   style="fill:#f4f4f4"
   id="path28"
   clip-path="url(#SVGID_2_)"
   d="m 684.2,431.4 8.2,-4.4 c 0.7,-0.4 0.9,-1.2 0.5,-1.9 l -2.7,-4.1 c 0,0 -2.4,-3.2 -7.2,-1.3 0,0 -4,1.7 -3.8,5.7 0,0 0.2,1.6 2.1,4.1 l 0.8,1.3 c 0.5,0.8 1.4,1 2.1,0.6 z"
   class="st2" />
<path
   transform="translate(-468.79999,-178.10001)"
   style="fill:#f4f4f4"
   id="path30"
   clip-path="url(#SVGID_2_)"
   d="m 721.2,406.3 10.8,-1.5 c 0.9,-0.1 1.6,-0.9 1.4,-1.8 l -1,-5.5 c 0,0 -1.1,-4.3 -7.1,-4.2 0,0 -5,0.3 -6.6,4.6 0,0 -0.5,1.8 0.3,5.2 l 0.3,1.8 c 0.1,0.9 0.9,1.5 1.9,1.4 z"
   class="st2" />
<path
   transform="translate(-468.79999,-178.10001)"
   style="fill:#f4f4f4"
   id="path32"
   clip-path="url(#SVGID_2_)"
   d="m 754.7,406.9 7.6,-1 c 0.7,-0.1 1.1,-0.7 1,-1.3 l -0.7,-3.9 c 0,0 -0.8,-3 -5,-3 0,0 -3.6,0.2 -4.7,3.3 0,0 -0.4,1.3 0.2,3.7 l 0.2,1.2 c 0.2,0.7 0.8,1.1 1.4,1 z"
   class="st2" />
<path
   transform="translate(-468.79999,-178.10001)"
   style="fill:#f4f4f4"
   id="path34"
   clip-path="url(#SVGID_2_)"
   d="m 811.6,428.6 6.2,2.3 c 0.5,0.2 1.1,0 1.3,-0.5 l 1.3,-3.2 c 0,0 0.9,-2.6 -2.4,-4.3 0,0 -2.8,-1.3 -5.1,0.5 0,0 -0.9,0.8 -1.6,2.9 l -0.4,1 c -0.1,0.5 0.2,1.1 0.7,1.3 z"
   class="st2" />
<path
   transform="translate(-468.79999,-178.10001)"
   style="fill:#f4f4f4"
   id="path36"
   clip-path="url(#SVGID_2_)"
   d="m 677.9,510.3 4.3,-5.6 c 0.4,-0.5 0,-1.2 -0.9,-1.7 l -5.5,-3 c 0,0 -4.5,-2.2 -7.5,0.5 0,0 -2.4,2.3 0.8,5.7 0,0 1.4,1.3 4.9,3.1 l 1.7,1 c 0.9,0.5 1.9,0.5 2.2,0 z"
   class="st2" />
<path
   transform="translate(-468.79999,-178.10001)"
   style="fill:#9b7b66"
   id="path38"
   clip-path="url(#SVGID_2_)"
   d="m 898.8,489.3 c -8,-0.3 -15.7,-3.4 -22.4,-7.6 -6.7,-4.1 -12.7,-9.2 -18.8,-14.1 -11.4,-9 -23.3,-18.5 -37.6,-22.7 -28.3,-8.4 -37.5,-33.9 -58.3,-51.2 -2.2,-1.8 -5.8,-2.3 -8.3,-0.9 -2.4,1.3 -3,4.4 -2.2,6.9 0.8,2.5 2.7,4.5 4.5,6.5 8.7,9.7 16.4,20.3 22.7,31.6 1.6,2.9 3.1,6.8 0.6,9.2 -2.7,2.6 -7.4,0.9 -10.8,-0.9 -18.6,-9.9 -38.6,-17.7 -59.2,-23.1 -2.5,-0.7 -5.1,-1.3 -7.7,-1 -2.6,0.3 -5.2,1.6 -6.2,3.9 -1,2.4 0.1,5.1 2,6.9 1.9,1.8 4.4,2.9 6.8,4 15.5,6.7 31,13.3 46.5,20 4.2,1.8 9.1,4.8 8.4,9 -22.9,-7.1 -45.8,-14.1 -68.7,-21.2 -5.3,-1.6 -12,-2.9 -15.5,1.1 -2.8,3.2 -1.6,8.3 1.5,11.3 3.1,3 7.6,4.4 11.8,5.7 18.8,5.7 37.7,11.3 56.5,17 2.2,0.7 4.8,1.8 4.8,4 0,2 -2.3,3.2 -4.3,3.8 -18.9,6 -39.7,-0.8 -59.7,0.3 -2.7,0.2 -5.5,0.5 -7.9,1.6 -2.4,1.1 -4.4,3.3 -4.7,5.8 -0.4,3.3 2.3,6.3 5.5,7.7 3.2,1.4 6.8,1.5 10.3,1.6 24.6,0.8 49.3,5 73.8,7.6 5.9,0.6 11.5,3.6 15.2,8 1.3,1.6 2.4,3.6 1.9,5.5 -0.4,1.6 -1.9,2.8 -3.6,3.5 -1.7,0.6 -3.5,0.8 -5.2,1 -9.9,1.3 -19.6,4.7 -27.9,9.9 -4.2,2.6 -8.4,6.1 -9.3,10.8 -0.4,2 -0.1,4.3 1.6,5.7 2.5,2 6.4,0.8 9.5,-0.3 10.9,-4 22.6,-6.2 34.3,-6.4 9.4,-0.2 19,0.9 28,-1.5 13.9,-3.7 24.2,-14.9 37.7,-19.7 17.9,6.4 35.6,14.2 51.9,23.5 6.9,-19.4 13.8,-38.8 20.7,-58.2 -6,-1.6 -12.2,-4.4 -18.2,-4.6 z"
   class="st5" />
<path
   transform="translate(-468.79999,-178.10001)"
   style="fill:#527073"
   id="path40"
   clip-path="url(#SVGID_2_)"
   d="m 890.1,473.1 c 0,0 142.3,72.9 289.3,119.9 13.9,4.5 27.9,8.7 41.8,12.6 l -22.4,75.8 C 1111,645.3 926.4,570 857.5,548.3 c 0,0 3.5,-2.5 8.7,-11.2 5.4,-8.9 12.8,-24.4 20.2,-50.5 1.3,-4.2 2.5,-8.7 3.7,-13.5 z"
   class="st6" />
<path
   transform="translate(-468.79999,-178.10001)"
   style="fill:#faefdb"
   id="path42"
   clip-path="url(#SVGID_2_)"
   d="m 686.2,501.2 0.8,-8.8 c 0.1,-0.8 -0.5,-1.4 -1.3,-1.5 l -5.2,-0.3 c 0,0 -4.1,0 -5.2,4.7 0,0 -0.8,4 2.9,6.2 0,0 1.5,0.8 4.8,0.8 l 1.7,0.1 c 0.7,0 1.4,-0.5 1.5,-1.2 z"
   class="st7" />
<path
   transform="translate(-468.79999,-178.10001)"
   style="fill:#f4f4f4"
   id="path44"
   clip-path="url(#SVGID_2_)"
   d="m 685.4,458.5 4.9,-9.1 c 0.4,-0.8 0.1,-1.7 -0.8,-2.1 l -5.4,-2.4 c 0,0 -4.4,-1.7 -7.8,3 0,0 -2.7,4 0.3,7.7 0,0 1.3,1.4 4.8,2.7 l 1.7,0.8 c 0.9,0.5 1.9,0.2 2.3,-0.6 z"
   class="st2" />
<path
   transform="translate(-468.79999,-178.10001)"
   style="fill:#f4f4f4"
   id="path46"
   clip-path="url(#SVGID_2_)"
   d="m 705.2,433.3 3.5,-6.4 c 0.3,-0.5 0.1,-1.2 -0.5,-1.5 l -3.8,-1.7 c 0,0 -3.1,-1.2 -5.5,2.1 0,0 -1.9,2.8 0.2,5.5 0,0 0.9,1 3.4,1.9 l 1.2,0.6 c 0.5,0.2 1.2,0 1.5,-0.5 z"
   class="st2" />
<path
   transform="translate(-468.79999,-178.10001)"
   style="fill:#f4f4f4"
   id="path48"
   clip-path="url(#SVGID_2_)"
   d="m 757,402.4 5.6,-3.4 c 0.5,-0.3 0.6,-0.9 0.3,-1.3 l -2.1,-2.8 c 0,0 -1.8,-2.2 -5.1,-0.7 0,0 -2.7,1.4 -2.4,4.2 0,0 0.2,1.1 1.6,2.8 l 0.6,0.9 c 0.4,0.5 1,0.6 1.5,0.3 z"
   class="st2" />
<path
   transform="translate(-468.79999,-178.10001)"
   style="fill:#faefdb"
   id="path50"
   clip-path="url(#SVGID_2_)"
   d="m 751.9,551.3 -2.4,-6.5 c -0.2,-0.6 -1.1,-0.7 -2,-0.3 l -5.8,2.5 c 0,0 -4.5,2.1 -3.9,5.9 0,0 0.7,3.1 5.5,2.7 0,0 1.9,-0.3 5.5,-2 l 1.9,-0.8 c 0.9,-0.2 1.5,-1 1.2,-1.5 z"
   class="st7" />
<path
   transform="translate(-468.79999,-178.10001)"
   style="fill:#fee3c5"
   id="path52"
   clip-path="url(#SVGID_2_)"
   d="m 881.1,368.1 c -5.2,5.8 -12.5,9.5 -20.1,12 -7.6,2.5 -15.6,3.8 -23.4,5.4 -14.6,3 -29.9,6.1 -42.2,14.1 -24.3,15.9 -51.7,7.3 -79.1,12.1 -2.9,0.5 -5.4,2.9 -5.8,5.6 -0.3,2.6 1.9,4.9 4.5,5.9 2.6,0.9 5.5,0.8 8.3,0.6 13.6,-0.6 27.3,0.2 40.7,2.4 3.5,0.6 7.7,1.9 8.2,5.1 0.6,3.6 -3.7,6 -7.3,7.4 -19.8,7.8 -38.5,17.8 -55.7,29.8 -2.1,1.5 -4.2,3 -5.6,5.1 -1.4,2.1 -1.8,4.9 -0.4,7 1.4,2.1 4.4,3 7.1,2.7 2.7,-0.3 5.1,-1.5 7.5,-2.7 15.1,-7.4 30.2,-14.9 45.3,-22.3 4.1,-2 9.6,-3.8 12.8,-0.8 -19.9,12.7 -39.8,25.3 -59.8,38 -4.6,2.9 -9.7,7.1 -8.5,12.1 1,4.1 6.2,6.2 10.6,5.7 4.4,-0.5 8.3,-2.9 12,-5.3 16.3,-10.5 32.5,-21 48.8,-31.5 1.9,-1.2 4.5,-2.4 6.3,-1.1 1.7,1.2 1.3,3.6 0.6,5.5 -6.3,17.7 -24.8,28.9 -35.9,44.4 -1.5,2.1 -2.9,4.3 -3.4,6.8 -0.5,2.5 0.1,5.3 2,7 2.5,2.3 6.7,2.1 9.9,0.6 3.1,-1.5 5.4,-4.1 7.6,-6.7 15.6,-17.8 34.1,-33.5 51.2,-50 4.1,-4 10,-6.4 16,-6.4 2.1,0 4.5,0.4 5.8,1.9 1.1,1.3 1.2,3.2 0.8,4.8 -0.5,1.6 -1.4,3 -2.3,4.5 -5,8.1 -7.9,17.3 -8.5,26.7 -0.3,4.7 0.2,9.9 3.5,13.5 1.5,1.5 3.7,2.7 5.8,2.3 3.3,-0.6 4.6,-4.2 5.5,-7.2 3.2,-10.5 8.4,-20.5 15.3,-29.3 5.5,-7.1 12.3,-13.5 15.7,-21.7 5.3,-12.5 1.9,-26.9 6,-39.9 16.3,-9.3 33.7,-17.8 51.6,-24.1 -12.4,-16.9 -24.8,-33.7 -37.2,-50.6 -4.3,3.4 -10.4,6.4 -14.2,10.6 z"
   class="st0" />
<path
   transform="translate(-468.79999,-178.10001)"
   style="fill:#cc5a28"
   id="path54"
   clip-path="url(#SVGID_2_)"
   d="m 862,364.8 c 0,0 148.5,-61.2 277.8,-141.5 12.2,-7.6 24.3,-15.4 36.1,-23.3 l 51.1,62.6 c -84,43 -260.3,134.1 -320.5,172 0,0 0,-4.1 -4.2,-13.2 -4.3,-9.4 -13.1,-24.2 -30.9,-45.6 -2.9,-3.6 -6,-7.2 -9.4,-11 z"
   class="st8" />
<path
   transform="translate(-468.79999,-178.10001)"
   style="fill:#f4f4f4"
   id="path56"
   clip-path="url(#SVGID_2_)"
   d="m 762.3,532.7 -7,-6 c -0.6,-0.5 -1.5,-0.5 -2.1,0.1 l -3.4,3.6 c 0,0 -2.5,3 0.9,6.8 0,0 3,3 7,1.6 0,0 1.6,-0.7 3.6,-3.1 l 1.1,-1.1 c 0.6,-0.5 0.5,-1.3 -0.1,-1.9 z"
   class="st2" />
<path
   transform="translate(-468.79999,-178.10001)"
   style="fill:#f4f4f4"
   id="path58"
   clip-path="url(#SVGID_2_)"
   d="m 725.4,507.5 -4.8,-9.1 c -0.4,-0.8 -1.4,-1.1 -2.3,-0.7 l -5.3,2.5 c 0,0 -4.1,2.2 -2.1,7.6 0,0 1.8,4.4 6.8,4.5 0,0 2,-0.1 5.2,-1.9 l 1.7,-0.8 c 0.9,-0.4 1.2,-1.3 0.8,-2.1 z"
   class="st2" />
<path
   transform="translate(-468.79999,-178.10001)"
   style="fill:#f4f4f4"
   id="path60"
   clip-path="url(#SVGID_2_)"
   d="m 715.9,477.5 -3.4,-6.5 c -0.3,-0.6 -1,-0.8 -1.6,-0.5 l -3.8,1.8 c 0,0 -2.9,1.6 -1.5,5.3 0,0 1.3,3.1 4.8,3.2 0,0 1.4,-0.1 3.7,-1.3 l 1.2,-0.5 c 0.6,-0.3 0.9,-0.9 0.6,-1.5 z"
   class="st2" />
<path
   transform="translate(-468.79999,-178.10001)"
   style="fill:#f4f4f4"
   id="path62"
   clip-path="url(#SVGID_2_)"
   d="m 721,420.5 0.5,-6.2 c 0,-0.5 -0.4,-1 -1,-1 l -3.7,-0.2 c 0,0 -2.9,0 -3.7,3.4 0,0 -0.5,2.9 2.1,4.3 0,0 1.1,0.5 3.4,0.5 l 1.2,0.1 c 0.6,0 1.1,-0.4 1.2,-0.9 z"
   class="st2" />
<path
   transform="translate(-468.79999,-178.10001)"
   style="fill:#fff9ef"
   id="path64"
   clip-path="url(#SVGID_2_)"
   d="m 845,514.5 -7,-2.1 c -0.6,-0.2 -1.3,0.4 -1.5,1.3 l -1.4,5.8 c 0,0 -0.9,4.6 2.7,6.5 0,0 3.1,1.4 5.6,-2.4 0,0 0.9,-1.6 1.7,-5.3 l 0.5,-1.8 c 0.3,-1 0,-1.9 -0.6,-2 z"
   class="st9" />
<path
   transform="translate(-468.79999,-178.10001)"
   style="fill:#e3b486"
   id="path66"
   clip-path="url(#SVGID_2_)"
   d="m 726.3,331.2 c 2.3,7.2 1.6,14.9 -0.3,22.2 -1.9,7.3 -5.2,14.2 -8.1,21.1 -5.4,13 -11.1,26.6 -10.7,40.5 0.8,27.6 -22.1,44.1 -32.9,68.1 -1.1,2.5 -0.4,5.8 1.8,7.6 2.1,1.7 5.5,1.2 7.8,-0.3 2.3,-1.5 3.7,-3.8 5.1,-6.1 7,-10.9 15.3,-21 24.6,-30.3 2.4,-2.4 5.9,-4.9 9.2,-3.5 3.5,1.5 3.3,6.2 2.6,9.8 -3.9,19.6 -5.3,39.7 -4.1,59.7 0.1,2.4 0.4,4.9 1.5,7.1 1.1,2.2 3.4,4.1 6,4.1 2.7,0.1 5.1,-1.8 6.3,-4 1.2,-2.2 1.5,-4.8 1.8,-7.3 1.7,-15.8 3.4,-31.6 5.1,-47.4 0.5,-4.3 1.9,-9.6 6.4,-10.3 0.3,22.5 0.7,44.9 1,67.4 0.1,5.1 1,11.5 6.2,13.3 4.2,1.4 9,-1.3 11,-5.1 2,-3.8 2,-8.1 1.9,-12.2 -0.4,-18.4 -0.8,-36.8 -1.2,-55.3 0,-2.1 0.3,-4.8 2.5,-5.5 2,-0.6 4,1 5.3,2.5 12.3,14.7 12.1,35.2 19.9,52.4 1,2.3 2.3,4.6 4.2,6.4 2,1.7 4.8,2.8 7.4,2.3 3.4,-0.7 5.6,-4 6,-7.3 0.4,-3.3 -0.7,-6.5 -1.8,-9.6 -7.3,-21.9 -11.1,-45 -16.4,-67.4 -1.3,-5.4 -0.1,-11.3 3.1,-16 1.2,-1.7 2.8,-3.3 5,-3.5 1.8,-0.1 3.5,0.8 4.7,2 1.2,1.2 1.9,2.8 2.8,4.3 4.5,8.3 11.1,15.7 19.2,21.3 4.1,2.9 9,5.4 14,4.7 2.2,-0.3 4.4,-1.4 5.3,-3.3 1.2,-2.9 -1.2,-5.9 -3.4,-8.2 -7.7,-8.3 -13.7,-17.8 -17.8,-28.1 -3.2,-8.2 -5.3,-17 -10.7,-24.2 -8.3,-11 -23,-16.4 -32.4,-26.7 0.7,-17.8 2.7,-35.9 6.9,-53.4 -21.9,0.3 -43.9,0.6 -65.8,0.9 0,5.6 -0.7,12.1 1,17.3 z"
   class="st10" />
<path
   transform="translate(-468.79999,-178.10001)"
   style="fill:#07686b"
   id="path68"
   clip-path="url(#SVGID_2_)"
   d="m 712.8,344.2 c 0,0 27.4,-149 27,-293.8 0,-13.7 -0.3,-27.4 -0.9,-40.9 l 84.3,-5.1 c -8,89 -23.9,276 -23.3,343.8 0,0 -3.6,-2.2 -14.2,-4 -10.8,-1.8 -28.9,-3.2 -57.9,-1.3 -4.8,0.4 -9.8,0.8 -15,1.3 z"
   class="st11" />
<path
   transform="translate(-468.79999,-178.10001)"
   style="fill:#f4f4f4"
   id="path70"
   clip-path="url(#SVGID_2_)"
   d="m 808,514.4 -9.2,2.1 c -0.8,0.2 -1.3,0.9 -1,1.7 l 1.4,4.7 c 0,0 1.3,3.6 6.5,3.1 0,0 4.3,-0.6 5.3,-4.6 0,0 0.3,-1.6 -0.8,-4.5 l -0.4,-1.5 c -0.3,-0.7 -1.1,-1.2 -1.8,-1 z"
   class="st2" />
<path
   transform="translate(-468.79999,-178.10001)"
   style="fill:#f4f4f4"
   id="path72"
   clip-path="url(#SVGID_2_)"
   d="m 765,529.1 -10.8,-1.4 c -0.9,-0.1 -1.8,0.5 -1.9,1.4 l -0.7,5.5 c 0,0 -0.3,4.4 5.6,5.8 0,0 4.9,1 7.7,-2.8 0,0 1,-1.6 1.2,-5.1 l 0.3,-1.8 c 0.1,-0.7 -0.5,-1.5 -1.4,-1.6 z"
   class="st2" />
<path
   transform="translate(-468.79999,-178.10001)"
   style="fill:#f4f4f4"
   id="path74"
   clip-path="url(#SVGID_2_)"
   d="m 732.9,519.9 -7.7,-1 c -0.7,-0.1 -1.3,0.4 -1.3,1 l -0.5,3.9 c 0,0 -0.2,3.1 3.9,4.1 0,0 3.5,0.7 5.5,-2 0,0 0.7,-1.1 0.9,-3.6 l 0.2,-1.2 c 0.1,-0.5 -0.4,-1.1 -1,-1.2 z"
   class="st2" />
<path
   transform="translate(-468.79999,-178.10001)"
   style="fill:#f4f4f4"
   id="path76"
   clip-path="url(#SVGID_2_)"
   d="m 684.6,484.4 -5.3,-3.9 c -0.5,-0.3 -1.1,-0.2 -1.5,0.2 l -2.2,2.7 c 0,0 -1.6,2.3 1,4.7 0,0 2.3,2 5,0.8 0,0 1.1,-0.6 2.3,-2.4 l 0.7,-0.9 c 0.5,-0.2 0.5,-0.8 0,-1.2 z"
   class="st2" />
<path
   transform="translate(-468.79999,-178.10001)"
   style="fill:#f4f4f4"
   id="path78"
   clip-path="url(#SVGID_2_)"
   d="m 837.3,440.2 -5.7,4.3 c -0.5,0.4 -0.3,1.2 0.4,1.9 l 4.4,4.3 c 0,0 3.6,3.3 7.3,1.5 0,0 3,-1.6 1,-5.7 0,0 -0.9,-1.6 -3.8,-4.2 l -1.4,-1.4 c -0.8,-0.8 -1.7,-1.1 -2.2,-0.7 z"
   class="st2" />
<path
   transform="translate(-468.79999,-178.10001)"
   style="fill:#876653"
   id="path80"
   clip-path="url(#SVGID_2_)"
   d="m 631.8,408.6 c 7.6,2.6 13.8,7.7 18.9,13.6 5.1,5.8 9,12.4 13.3,18.7 7.9,11.8 16.2,24.2 28.4,32.2 24.2,16 24.7,42.9 38.8,65.3 1.5,2.3 4.8,3.8 7.6,3.2 2.7,-0.6 4.3,-3.4 4.4,-6 0.1,-2.6 -1.1,-5.1 -2.1,-7.5 -5.2,-11.7 -9,-24 -11.3,-36.5 -0.6,-3.3 -0.7,-7.4 2.4,-9 3.4,-1.7 7.3,1.3 10,3.9 14.5,14.7 31,27.8 48.9,38.8 2.2,1.3 4.5,2.7 7,3.2 2.6,0.5 5.5,-0.1 7.2,-2 1.7,-2 1.5,-4.9 0.3,-7.1 -1.2,-2.3 -3.2,-4 -5.2,-5.7 -12.6,-10.7 -25.2,-21.5 -37.7,-32.2 -3.4,-2.9 -7.1,-7.1 -5.1,-11 19.5,13.2 39,26.4 58.5,39.6 4.5,3 10.5,6.1 15.1,3.3 3.8,-2.3 4.2,-7.5 2.2,-11.2 -2,-3.7 -5.8,-6.3 -9.4,-8.7 -16.1,-10.7 -32.2,-21.5 -48.3,-32.2 -1.9,-1.3 -4,-3.1 -3.3,-5.2 0.7,-1.9 3.2,-2.4 5.3,-2.4 20,-0.4 37.5,12 57,16.6 2.6,0.6 5.4,1.1 8,0.7 2.7,-0.4 5.3,-1.8 6.4,-4.1 1.4,-3 -0.1,-6.6 -2.7,-8.8 -2.6,-2.2 -6,-3.3 -9.3,-4.4 -23.2,-7.7 -45.3,-18.7 -67.8,-28.1 -5.4,-2.3 -9.8,-6.7 -11.8,-11.9 -0.7,-1.9 -1.1,-4.1 0,-5.8 0.9,-1.4 2.8,-2.1 4.6,-2.3 1.8,-0.1 3.6,0.2 5.3,0.5 9.9,1.6 20.2,1.1 29.8,-1.5 4.9,-1.3 10,-3.5 12.4,-7.6 1.1,-1.8 1.5,-4.1 0.3,-5.9 -1.7,-2.6 -5.8,-2.6 -9.1,-2.4 -11.7,0.8 -23.5,-0.5 -34.8,-3.6 -9,-2.5 -17.8,-6.2 -27.2,-6.5 -14.5,-0.4 -27.9,7.3 -42.3,8.1 -14.9,-11.2 -29.3,-23.6 -41.8,-37.1 -12.9,16.5 -25.8,33.1 -38.7,49.6 5.1,3.1 10.2,7.5 15.8,9.4 z"
   class="st12" />
<path
   transform="translate(-468.79999,-178.10001)"
   style="fill:#f3b840"
   id="path82"
   clip-path="url(#SVGID_2_)"
   d="m 634.8,426.5 c 0,0 -111.8,-109.7 -236.5,-196.1 -11.8,-8.2 -23.7,-16.2 -35.7,-23.8 l 46.1,-65.9 c 71.7,59.3 223,183.2 281.7,223.3 0,0 -4.1,1.4 -12,8.2 -8.1,7 -20.1,19.6 -35.8,42.4 -2.5,3.7 -5.1,7.7 -7.8,11.9 z"
   class="st13" />
<path
   transform="translate(-468.79999,-178.10001)"
   style="fill:#ccb79c"
   id="path84"
   clip-path="url(#SVGID_2_)"
   d="m 838.2,457.5 -3.7,8.2 c -0.3,0.7 0,1.5 0.8,1.8 l 4.8,1.8 c 0,0 3.9,1.2 6.5,-3 0,0 2,-3.6 -0.7,-6.7 0,0 -1.2,-1.2 -4.3,-2.1 l -1.5,-0.6 c -0.7,-0.4 -1.6,-0.1 -1.9,0.6 z"
   class="st14" />
<path
   transform="translate(-468.79999,-178.10001)"
   style="fill:#ccb79c"
   id="path86"
   clip-path="url(#SVGID_2_)"
   d="m 825.1,498.3 -7.6,7.3 c -0.7,0.6 -0.6,1.6 0,2.2 l 4.3,3.8 c 0,0 3.6,2.8 8.4,-0.7 0,0 3.8,-3.1 2.3,-7.4 0,0 -0.8,-1.7 -3.7,-4 l -1.4,-1.3 c -0.6,-0.5 -1.7,-0.5 -2.3,0.1 z"
   class="st14" />
<path
   transform="translate(-468.79999,-178.10001)"
   style="fill:#ccb79c"
   id="path88"
   clip-path="url(#SVGID_2_)"
   d="m 797.9,516.8 -5.4,5.1 c -0.5,0.4 -0.4,1.1 0,1.6 l 3.1,2.7 c 0,0 2.6,2 5.9,-0.5 0,0 2.7,-2.2 1.6,-5.3 0,0 -0.5,-1.2 -2.6,-2.8 l -1,-0.9 c -0.4,-0.4 -1.1,-0.4 -1.6,0.1 z"
   class="st14" />
<path
   transform="translate(-468.79999,-178.10001)"
   style="fill:#ccb79c"
   id="path90"
   clip-path="url(#SVGID_2_)"
   d="m 738.5,531.5 -6.5,1.6 c -0.6,0.1 -0.9,0.7 -0.7,1.2 l 1,3.3 c 0,0 1,2.6 4.7,2.1 0,0 3.1,-0.5 3.7,-3.3 0,0 0.2,-1.1 -0.6,-3.2 l -0.3,-1.1 c -0.2,-0.4 -0.7,-0.7 -1.3,-0.6 z"
   class="st14" />
<path
   transform="translate(-468.79999,-178.10001)"
   style="fill:#ccb79c"
   id="path92"
   clip-path="url(#SVGID_2_)"
   d="m 791.9,391.1 0.2,6.8 c 0,0.6 0.8,1 1.8,0.9 l 6.3,-0.7 c 0,0 5,-0.7 5.6,-4.6 0,0 0.4,-3.2 -4.3,-4.1 0,0 -1.9,-0.3 -5.9,0.3 l -2,0.2 c -0.9,0.1 -1.7,0.6 -1.7,1.2 z"
   class="st14" />
<path
   transform="translate(-468.79999,-178.10001)"
   style="fill:#ffcc9a"
   id="path94"
   clip-path="url(#SVGID_2_)"
   d="m 648.6,482.3 c 7.7,-2.1 16.1,-1.4 23.8,0.5 7.8,1.9 15.2,5 22.7,7.7 13.9,5.1 28.5,10.5 43.4,10.3 29.7,-0.5 47.2,20.9 72.9,31.1 2.7,1.1 6.3,0.4 8.1,-1.7 1.8,-2 1.3,-5.1 -0.3,-7.2 -1.6,-2.1 -4.1,-3.5 -6.5,-4.8 -11.6,-6.6 -22.5,-14.4 -32.3,-23.1 -2.6,-2.3 -5.3,-5.6 -3.7,-8.6 1.7,-3.3 6.7,-3 10.5,-2.3 21.1,3.8 42.6,5.2 64.1,4.2 2.6,-0.1 5.3,-0.3 7.7,-1.3 2.4,-1 4.4,-3.1 4.5,-5.6 0.1,-2.5 -1.9,-4.8 -4.3,-5.9 -2.4,-1.2 -5.2,-1.5 -7.8,-1.7 -17,-1.7 -33.9,-3.4 -50.9,-5.1 -4.6,-0.5 -10.3,-1.8 -11.1,-6 24.1,-0.1 48.3,-0.3 72.4,-0.4 5.5,0 12.4,-0.9 14.3,-5.7 1.6,-3.9 -1.4,-8.4 -5.4,-10.3 -4,-1.9 -8.7,-1.9 -13.1,-1.8 -19.8,0.3 -39.6,0.5 -59.4,0.8 -2.3,0 -5.2,-0.3 -5.9,-2.3 -0.7,-1.9 1.1,-3.7 2.8,-4.9 15.9,-11.4 37.9,-11.1 56.4,-18.2 2.5,-1 5,-2.1 6.9,-3.9 1.9,-1.8 3.1,-4.4 2.5,-6.9 -0.8,-3.2 -4.3,-5.3 -7.8,-5.6 -3.5,-0.4 -7,0.6 -10.3,1.6 -23.6,6.6 -48.4,10 -72.5,14.8 -5.8,1.2 -12.1,0 -17.1,-3 -1.8,-1.1 -3.5,-2.7 -3.7,-4.6 -0.1,-1.7 0.9,-3.3 2.2,-4.4 1.3,-1.1 3,-1.8 4.6,-2.5 9,-4.2 16.9,-10.3 23,-17.7 3.1,-3.8 5.8,-8.3 5.1,-13 -0.3,-2 -1.4,-4.1 -3.5,-4.9 -3.1,-1.2 -6.3,1.1 -8.9,3.1 -8.9,7.1 -19.2,12.6 -30.3,16.3 -8.8,3 -18.3,4.8 -26,9.8 -11.9,7.6 -17.8,21.3 -28.9,29.9 -19.1,-0.8 -38.6,-2.8 -57.3,-6.8 0.2,20.4 0.3,40.9 0.5,61.3 6.1,-0.4 13,0.3 18.6,-1.2 z"
   class="st15" />
<path
   transform="translate(-468.79999,-178.10001)"
   style="fill:#c4d165"
   id="path96"
   clip-path="url(#SVGID_2_)"
   d="m 662.5,495 c 0,0 -159.9,-26.5 -315.3,-27.2 -14.7,-0.1 -29.4,0.1 -43.9,0.6 l -4.9,-78.5 c 95.5,8.1 296.3,24.2 369,24.1 0,0 -2.4,3.4 -4.4,13.2 -2.1,10.1 -3.7,26.9 -1.8,53.9 0.4,4.4 0.8,9 1.3,13.9 z"
   class="st16" />
<path
   transform="translate(-468.79999,-178.10001)"
   style="fill:#f4f4f4"
   id="path98"
   clip-path="url(#SVGID_2_)"
   d="m 845.9,407.6 2.2,8.6 c 0.2,0.7 1,1.2 1.8,1 l 5,-1.2 c 0,0 3.9,-1.2 3.3,-6.1 0,0 -0.7,-4 -4.9,-5 0,0 -1.7,-0.3 -4.8,0.7 l -1.6,0.4 c -0.7,0.1 -1.2,0.8 -1,1.6 z"
   class="st2" />
<path
   transform="translate(-468.79999,-178.10001)"
   style="fill:#f4f4f4"
   id="path100"
   clip-path="url(#SVGID_2_)"
   d="m 861.4,447.7 -1.5,10.1 c -0.1,0.9 0.5,1.7 1.4,1.8 l 5.9,0.7 c 0,0 4.7,0.3 6.3,-5.1 0,0 1.1,-4.6 -2.9,-7.2 0,0 -1.7,-1 -5.5,-1.2 l -1.9,-0.3 c -0.8,-0.3 -1.7,0.3 -1.8,1.2 z"
   class="st2" />
<path
   transform="translate(-468.79999,-178.10001)"
   style="fill:#f4f4f4"
   id="path102"
   clip-path="url(#SVGID_2_)"
   d="m 851.3,477.5 -1.1,7.1 c -0.1,0.6 0.4,1.2 1,1.2 l 4.2,0.5 c 0,0 3.4,0.2 4.5,-3.6 0,0 0.8,-3.2 -2.1,-5.1 0,0 -1.2,-0.7 -3.9,-0.8 l -1.3,-0.2 c -0.6,-0.1 -1.2,0.3 -1.3,0.9 z"
   class="st2" />
<path
   transform="translate(-468.79999,-178.10001)"
   style="fill:#f4f4f4"
   id="path104"
   clip-path="url(#SVGID_2_)"
   d="m 812.9,522.2 -4.2,4.9 c -0.4,0.4 -0.3,1 0.2,1.4 l 2.9,2.1 c 0,0 2.4,1.5 5.1,-0.9 0,0 2.1,-2.1 0.9,-4.7 0,0 -0.6,-1 -2.5,-2.2 l -0.9,-0.7 c -0.5,-0.4 -1.2,-0.3 -1.5,0.1 z"
   class="st2" />
<path
   transform="translate(-468.79999,-178.10001)"
   style="fill:#f4f4f4"
   id="path106"
   clip-path="url(#SVGID_2_)"
   d="m 766.4,379.7 4.5,5.4 c 0.4,0.5 1.3,0.3 2,-0.3 l 4.6,-4.1 c 0,0 3.5,-3.4 1.6,-6.8 0,0 -1.7,-2.8 -6.1,-0.9 0,0 -1.8,0.8 -4.6,3.5 l -1.5,1.3 c -0.6,0.6 -0.9,1.5 -0.5,1.9 z"
   class="st2" />
</svg>